<svg xmlns="http://www.w3.org/2000/svg" fill="none" viewBox="0 0 864 864"><rect width="864" height="864" fill="url(#paint0_linear)" rx="70"/><g filter="url(#filter0_d)"><path fill="#FDFDFD" d="M619.386 667C632.428 667 643 656.326 643 643.16V221.84c0-13.166-10.572-23.84-23.614-23.84H508.814c-13.041 0-23.613 10.674-23.613 23.84v211.527c0 13.166-10.572 23.84-23.614 23.84h-56.469c-13.042 0-23.614-10.674-23.614-23.84V221.84c0-13.166-10.572-23.84-23.613-23.84H244.614C231.572 198 221 208.674 221 221.84v421.32c0 13.166 10.572 23.84 23.614 23.84h113.277c13.041 0 23.613-10.674 23.613-23.84v-97.094c0-13.167 10.572-23.841 23.614-23.841h56.469c13.042 0 23.614 10.674 23.614 23.841v97.094c0 13.166 10.572 23.84 23.613 23.84h110.572z"/><path stroke="#161616" d="M619.386 667C632.428 667 643 656.326 643 643.16V221.84c0-13.166-10.572-23.84-23.614-23.84H508.814c-13.041 0-23.613 10.674-23.613 23.84v211.527c0 13.166-10.572 23.84-23.614 23.84h-56.469c-13.042 0-23.614-10.674-23.614-23.84V221.84c0-13.166-10.572-23.84-23.613-23.84H244.614C231.572 198 221 208.674 221 221.84v421.32c0 13.166 10.572 23.84 23.614 23.84h113.277c13.041 0 23.613-10.674 23.613-23.84v-97.094c0-13.167 10.572-23.841 23.614-23.841h56.469c13.042 0 23.614 10.674 23.614 23.841v97.094c0 13.166 10.572 23.84 23.613 23.84h110.572z"/></g><defs><linearGradient id="paint0_linear" x1="735" x2="309" y1="-159" y2="582" gradientUnits="userSpaceOnUse"><stop stop-color="#399CB4"/><stop offset=".422" stop-color="#3FAEC1"/><stop offset=".74" stop-color="#61E5F1"/><stop offset="1" stop-color="#50DCE5"/></linearGradient><filter id="filter0_d" width="530" height="577" x="147" y="128" color-interpolation-filters="sRGB" filterUnits="userSpaceOnUse"><feFlood flood-opacity="0" result="BackgroundImageFix"/><feColorMatrix in="SourceAlpha" values="0 0 0 0 0 0 0 0 0 0 0 0 0 0 0 0 0 0 127 0"/><feOffset dx="-20" dy="-16"/><feGaussianBlur stdDeviation="27"/><feColorMatrix values="0 0 0 0 0 0 0 0 0 0 0 0 0 0 0 0 0 0 0.25 0"/><feBlend in2="BackgroundImageFix" result="effect1_dropShadow"/><feBlend in="SourceGraphic" in2="effect1_dropShadow" result="shape"/></filter></defs></svg>