<svg width="148" height="28" fill="none" xmlns="http://www.w3.org/2000/svg"><rect width="100%" height="100%"/><defs><radialGradient id="a" cx="0" cy="0" r="1" gradientUnits="userSpaceOnUse" gradientTransform="matrix(294.99974 8.99997 -5.22521 171.27131 -16 5)"><stop offset=".133" stop-color="#48C2DF"/><stop offset=".316" stop-color="#52E5E7"/><stop offset="1" stop-color="#130CB7"/></radialGradient><radialGradient id="b" cx="0" cy="0" r="1" gradientUnits="userSpaceOnUse" gradientTransform="matrix(294.99974 8.99997 -5.22521 171.27131 -16 5)"><stop offset=".133" stop-color="#48C2DF"/><stop offset=".316" stop-color="#52E5E7"/><stop offset="1" stop-color="#130CB7"/></radialGradient><radialGradient id="c" cx="0" cy="0" r="1" gradientUnits="userSpaceOnUse" gradientTransform="matrix(294.99974 8.99997 -5.22521 171.27131 -16 5)"><stop offset=".133" stop-color="#48C2DF"/><stop offset=".316" stop-color="#52E5E7"/><stop offset="1" stop-color="#130CB7"/></radialGradient><radialGradient id="d" cx="0" cy="0" r="1" gradientUnits="userSpaceOnUse" gradientTransform="matrix(294.99974 8.99997 -5.22521 171.27131 -16 5)"><stop offset=".133" stop-color="#48C2DF"/><stop offset=".316" stop-color="#52E5E7"/><stop offset="1" stop-color="#130CB7"/></radialGradient><radialGradient id="e" cx="0" cy="0" r="1" gradientUnits="userSpaceOnUse" gradientTransform="matrix(294.99974 8.99997 -5.22521 171.27131 -16 5)"><stop offset=".133" stop-color="#48C2DF"/><stop offset=".316" stop-color="#52E5E7"/><stop offset="1" stop-color="#130CB7"/></radialGradient><radialGradient id="f" cx="0" cy="0" r="1" gradientUnits="userSpaceOnUse" gradientTransform="matrix(294.99974 8.99997 -5.22521 171.27131 -16 5)"><stop offset=".133" stop-color="#48C2DF"/><stop offset=".316" stop-color="#52E5E7"/><stop offset="1" stop-color="#130CB7"/></radialGradient></defs><g class="currentLayer"><path fill-rule="evenodd" clip-rule="evenodd" d="M35.322 0c-6.584 0-11.921 5.128-11.921 11.454 0 6.327 5.337 11.455 11.921 11.455h10.765a1.16 1.16 0 001.156-1.167V11.454C47.243 5.128 41.906 0 35.323 0zm0 6.618c-2.78 0-5.033 2.165-5.033 4.836 0 2.672 2.253 4.837 5.033 4.837H39.2c.639 0 1.157-.522 1.157-1.167v-3.67c0-2.67-2.254-4.836-5.034-4.836z" fill="url(#a)"/><path fill-rule="evenodd" clip-rule="evenodd" d="M61.814.255c6.584 0 11.921 5.128 11.921 11.454 0 6.326-5.337 11.455-11.921 11.455h-5.467c-.638 0-1.156.522-1.156 1.166v2.503c0 .645-.518 1.167-1.156 1.167h-2.986a1.162 1.162 0 01-1.156-1.167V11.71c0-6.326 5.337-11.454 11.92-11.454zm4.945 11.454c0-2.624-2.214-4.751-4.945-4.751-2.731 0-4.945 2.127-4.945 4.751v3.585c0 .644.517 1.167 1.156 1.167h3.789c2.731 0 4.945-2.128 4.945-4.752z" fill="url(#b)"/><path fill-rule="evenodd" clip-rule="evenodd" d="M136.079.17C142.663.17 148 5.298 148 11.624c0 6.326-5.337 11.455-11.921 11.455h-5.467c-.638 0-1.156.522-1.156 1.166v2.588c0 .645-.518 1.167-1.156 1.167h-2.986a1.161 1.161 0 01-1.156-1.167V11.624c0-6.326 5.337-11.454 11.921-11.454zm5.21 11.454c0-2.765-2.333-5.006-5.21-5.006-2.878 0-5.21 2.241-5.21 5.006v3.84a1.16 1.16 0 001.156 1.166h4.054c2.877 0 5.21-2.241 5.21-5.006z" fill="url(#c)"/><path d="M19.507 23.164c.639 0 1.156-.523 1.156-1.167V1.379A1.16 1.16 0 0019.507.212h-5.414a1.16 1.16 0 00-1.156 1.167V11.73c0 .645-.518 1.167-1.156 1.167H9.014A1.162 1.162 0 017.86 11.73V1.38C7.86.734 7.342.212 6.703.212H1.156C.518.212 0 .734 0 1.38v20.618c0 .644.518 1.167 1.156 1.167h5.547c.639 0 1.156-.523 1.156-1.167v-4.752c0-.644.518-1.166 1.156-1.166h2.765c.64 0 1.157.522 1.157 1.166v4.752c0 .644.517 1.167 1.156 1.167h5.414z" fill="url(#d)"/><path d="M96.156 23.164c.639 0 1.157-.523 1.157-1.167V1.337c0-.645-.518-1.167-1.157-1.167h-5.579c-.638 0-1.156.522-1.156 1.166v7.896c0 .645-.518 1.167-1.156 1.167H85.39a1.162 1.162 0 01-1.156-1.167V1.336c0-.644-.518-1.166-1.156-1.166h-5.715a1.16 1.16 0 00-1.156 1.166v20.661c0 .644.517 1.167 1.156 1.167h5.715c.638 0 1.156-.523 1.156-1.167V14.78c0-.644.517-1.167 1.156-1.167h2.874c.638 0 1.156.523 1.156 1.167v7.217c0 .644.517 1.167 1.156 1.167h5.58z" fill="url(#e)"/><path d="M119.999 23.927c.638 0 1.156-.522 1.156-1.166V1.25c0-.644-.518-1.166-1.156-1.166h-5.579c-.639 0-1.157.522-1.157 1.167v15.023a1.16 1.16 0 01-1.156 1.166h-2.874a1.162 1.162 0 01-1.156-1.166V1.252a1.16 1.16 0 00-1.156-1.167h-5.715c-.638 0-1.156.522-1.156 1.167V22.76c0 .644.518 1.166 1.156 1.166h18.793z" fill="url(#f)"/></g></svg>