<svg version="1.2" xmlns="http://www.w3.org/2000/svg" viewBox="0 0 837 438" width="837" height="438">
	<title>undraw_reviewed_docs_re_9lmr-svg</title>
	<style>
		.s0 { fill: #a0616a } 
		.s1 { fill: #cccccc } 
		.s2 { fill: #2f2e41 } 
		.s3 { fill: #3f3d56 } 
	</style>
	<g id="f59d61bb-6173-4011-886f-cab752b15cf5">
		<path id="ea601028-2261-4201-a5c6-6d1fee0209f8-125" class="s0" d="m812.4 234.6c-1.3-0.7-2.4-1.7-3.2-3-0.9-1.2-1.5-2.6-1.7-4-0.3-1.5-0.2-3 0.2-4.4 0.4-1.4 1.1-2.8 2-3.9l-10.5-77.3 22 1.1 3.4 75.4c1.8 1.7 2.9 4 3.1 6.5 0.2 2.5-0.5 5-2 7-1.5 2-3.7 3.3-6.2 3.8-2.4 0.5-4.9 0.1-7.1-1.2z"/>
		<path id="bab8e504-63c3-4a02-b094-c521f4d0da0a-126" class="s1" d="m824.2 144.1q-0.2 0.2-0.4 0.4-0.2 0.2-0.4 0.3-0.2 0.2-0.4 0.3-0.2 0.1-0.5 0.2l-19.8 7.6q-0.7 0.3-1.5 0.3-0.8-0.1-1.5-0.4-0.8-0.3-1.4-0.8-0.5-0.6-0.9-1.3l-17.5-39.4q-0.6-1.4-1-2.8-0.3-1.5-0.5-3-0.1-1.5 0.1-2.9 0.2-1.5 0.6-3 0.7-2 1.8-3.8 1.2-1.9 2.8-3.3 1.6-1.4 3.5-2.4 2-1 4.1-1.4 0.8-0.1 1.6-0.2 0.9-0.1 1.7-0.1 0.8 0 1.6 0.1 0.9 0.1 1.7 0.3 1.9 0.4 3.7 1.3 1.8 0.9 3.3 2.2 1.5 1.3 2.6 3 1.1 1.6 1.8 3.5l15.6 41.2q0.2 0.5 0.3 1.1 0 0.5-0.1 1.1-0.1 0.5-0.3 1-0.2 0.5-0.6 0.9z"/>
		<path id="e3cfda6a-f51e-4c96-8af0-12d99ec512c5-127" class="s0" d="m721.1 423.2h-13.7l-5-53.1 18.7 0.3z"/>
		<path id="a90fb924-173c-4f4a-b9ae-ede5dff37993-128" class="s2" d="m697.6 419.3h26.4v16.6h-43c0-2.2 0.4-4.3 1.2-6.4 0.9-2 2.1-3.8 3.7-5.3 1.5-1.6 3.3-2.8 5.3-3.7 2.1-0.8 4.2-1.2 6.4-1.2z"/>
		<path id="f7d48866-455f-47a0-876b-9c2c9b7d2f2d-129" class="s0" d="m784.7 423.2h-13.7l-6.5-52.8h20.2z"/>
		<path id="ae80d259-143f-4a2f-8815-2d5111ab51c8-130" class="s2" d="m761.3 419.3h26.4v16.6h-43.1c0-2.2 0.5-4.3 1.3-6.4 0.8-2 2.1-3.8 3.6-5.3 1.6-1.6 3.4-2.8 5.4-3.7 2-0.8 4.2-1.2 6.4-1.2z"/>
		<path id="b7aaac11-5418-4b5b-a747-2fb27f89cd88-131" class="s2" d="m786.5 404.4l-21.5-1.6q-1-0.1-1.8-0.4-0.8-0.4-1.5-1.1-0.6-0.6-1-1.5-0.4-0.8-0.4-1.8l-4.8-99c0-1-0.4-1.9-1.1-2.6-0.7-0.7-1.5-1.1-2.5-1.2-0.9 0-1.9 0.2-2.6 0.8-0.8 0.6-1.3 1.4-1.5 2.4l-20 97.6q-0.2 0.9-0.7 1.6-0.5 0.8-1.2 1.4-0.8 0.5-1.6 0.8-0.9 0.2-1.8 0.2l-19.5-1.6q-1-0.1-1.9-0.5-0.9-0.5-1.5-1.2-0.7-0.8-1-1.7-0.3-1-0.2-2 0 0 0-0.1l18-180.3q0.2-1.1 0.7-2 0.5-1 1.4-1.6 0.9-0.6 1.9-0.8 1.1-0.3 2.1 0l68.6 14.9q0.8 0.2 1.6 0.6 0.7 0.5 1.3 1.2 0.5 0.7 0.8 1.5 0.3 0.8 0.2 1.7l-3.1 171.4q-0.1 1-0.5 1.9-0.3 0.9-1 1.6-0.8 0.7-1.7 1-0.9 0.4-1.9 0.4-0.2 0-0.3 0z"/>
		<path id="eccc2a78-7d3a-4be1-aa48-fb8bb5d1e30a" class="s0" d="m767.6 61.8c-15.1 0-27.4-12.3-27.4-27.4 0-15.2 12.3-27.5 27.4-27.5 15.2 0 27.5 12.3 27.5 27.5 0 15.1-12.3 27.4-27.5 27.4z"/>
		<path id="a0a57a86-6e42-4b50-b3a1-f8a38df428dd-132" class="s1" d="m725.1 226.5q-2-1.8-3.5-3.9-1.6-2.2-2.6-4.6-1.1-2.5-1.6-5.1-0.5-2.6-0.5-5.2c0-39.5 34.2-127.5 35.2-130.3 0.1-0.7 1-0.9 5.8-4.1 4.7-3.2 11.5-3.7 20.2-1.5q0.7 0.2 1.3 0.5 0.6 0.4 1.1 0.9 0.4 0.4 0.8 1 0.3 0.6 0.5 1.3l1.6 2.4q0.1 0.4 0.3 0.8 0.2 0.4 0.5 0.8 0.3 0.3 0.7 0.6 0.3 0.3 0.7 0.4c7.1 3 29.4 16.7 21.8 68-7.1 47.8-9.9 75.8-10.8 85.7q-0.1 0.9-0.5 1.7-0.4 0.8-1 1.4-0.6 0.6-1.4 1-0.8 0.4-1.7 0.4c-3.4 0.4-9.4 0.8-16.4 0.8-16.3 0-38.7-2.2-50.5-13z"/>
		<path id="e2026d9f-0f48-4627-b939-bcbd235b248e-133" class="s0" d="m692.3 211.9c-0.6-1.3-1-2.8-1-4.3 0-1.5 0.3-2.9 0.9-4.3 0.6-1.3 1.4-2.6 2.6-3.5 1.1-1 2.4-1.7 3.8-2.1l34.3-70.1 17.7 13.2-39.1 64.5c0.5 2.4 0.1 5-1.1 7.2-1.2 2.1-3.2 3.8-5.6 4.6-2.3 0.8-4.9 0.7-7.2-0.2-2.3-1-4.2-2.8-5.3-5z"/>
		<path id="aa5178ad-b05d-4950-85b1-a624717fe499-134" class="s1" d="m752.5 143.3q-0.2 0.1-0.5 0.1-0.2 0.1-0.5 0.1-0.3 0-0.5 0-0.3-0.1-0.5-0.1l-20.7-4.8q-0.8-0.2-1.4-0.6-0.7-0.5-1.1-1.1-0.5-0.7-0.6-1.5-0.2-0.7 0-1.5l7.4-42.5q0.2-1.5 0.7-2.9 0.5-1.4 1.2-2.7 0.8-1.3 1.8-2.4 0.9-1.2 2.1-2.1 1.7-1.4 3.6-2.2 2-0.9 4.2-1.2 2.1-0.3 4.2 0 2.2 0.3 4.2 1.1 0.8 0.3 1.5 0.7 0.7 0.4 1.4 0.9 0.7 0.4 1.3 1 0.6 0.5 1.2 1.1 1.4 1.5 2.3 3.2 1 1.7 1.5 3.7 0.6 1.9 0.6 3.9 0 1.9-0.4 3.9l-10.1 42.9q-0.1 0.5-0.4 1-0.2 0.5-0.6 0.9-0.4 0.4-0.9 0.7-0.4 0.3-1 0.4z"/>
		<path id="f1455aca-238f-491a-b535-1c1a045e39f4-135" class="s2" d="m761.2 59.2q-1-1.1-1.7-2.3-0.7-1.2-1.1-2.6-0.5-1.4-0.5-2.8-0.1-1.4 0.2-2.8c0.9-5 1.5-8.3 1.6-9.5 0.3-4.1-3.8-7.4-7.9-7.9q-0.2 0-0.4 0 0.2 0.1 0.4 0.3c0.7 0.7 1.7 1.6 1.5 2.5q-0.2 0.9-1.6 1.3c-6.4 1.7-11.3 0.1-15.4-5.2q-0.5-0.6-0.9-1.2-0.3-0.6-0.6-1.2-0.3-0.7-0.5-1.4-0.3-0.6-0.4-1.3c-1.5-7.4 2.5-13.6 6.1-17.5 3-3.3 7.8-7.2 13.8-7.6 4.7-0.2 10.4 2.5 12 7.4q0.6-0.9 1.4-1.6 0.8-0.8 1.7-1.3 0.9-0.5 1.9-0.8 1.1-0.3 2.1-0.3 1.2-0.1 2.4 0.1 1.2 0.1 2.4 0.5 1.1 0.3 2.2 0.8 1.1 0.5 2.1 1.1c13.3 7.6 19.1 25.8 12.5 39.6-4.1 8.7-13 15.2-23.2 17q-0.3 0-0.5 0-0.2 0.1-0.5 0.1-0.2 0-0.5 0-0.2 0-0.5 0-1.1 0-2.2-0.2-1.1-0.2-2.2-0.7-1-0.4-2-1.1-0.9-0.6-1.7-1.4z"/>
	</g>
	<path id="a38c097c-1c01-4356-80b1-56a89c2c58fa-145" class="s3" d="m641 438.5h195q0.4 0 0.7-0.3 0.3-0.3 0.3-0.7 0-0.5-0.3-0.7-0.3-0.3-0.7-0.3h-195q-0.4 0-0.7 0.3-0.3 0.2-0.3 0.7 0 0.4 0.3 0.7 0.3 0.3 0.7 0.3z"/>
</svg>